
        <svg xmlns="http://www.w3.org/2000/svg" xmlns:xlink="http://www.w3.org/1999/xlink" version="1.1" width="3161.9706428209884" 
        height="818.2983389394577" viewBox="0 0 3161.9706428209884 818.2983389394577">
			
			<g transform="scale(8.098532141049434) translate(10, 10)">
				<defs id="SvgjsDefs1001"></defs><g id="SvgjsG1007" featureKey="LwVBM5-0" transform="matrix(0.1243453875533677,0,0,0.1243453875533677,-28.8652516893784,-69.8973094536297)" fill="#004aac"><g xmlns="http://www.w3.org/2000/svg"><g fill-opacity="1.0" stroke-linejoin=" miter"><path d="M586.6152,573.353L687.0283,886.18915L595.90497,915.51807Q595.4408,915.8285,595.1751,915.4293L494.96356,603.2213L586.5871,573.362 M487.01553,594.8197Q482.64813,596.66693,483.88077,601.41345L587.11676,923.0442Q588.93555,928.0344,593.90594,926.6623L695.06494,894.1881Q698.06946,893.05664,698.3416,889.4321L594.67975,565.7574Q593.1468,561.5449,588.63226,562.2139L487.06912,594.8025" fill="#004AAC"></path></g><g fill-opacity="1.0" stroke-linejoin=" miter"><path d="M835.7998,771.04645L615.0823,1014.42487L544.12103,950.17413Q543.6201,949.9273,543.83295,949.4976L764.10724,706.6079L835.77795,771.02655 M767.40924,695.5239Q763.6258,692.6652,760.13153,696.106L533.2091,946.32635Q529.7969,950.3966,533.47034,954.015L612.17334,1025.3843Q614.6554,1027.4204,617.9304,1025.844L846.41003,774.2327Q849.2917,770.7989,846.4551,767.2237L767.451,695.5617" fill="#004AAC"></path></g><g fill-opacity="1.0" stroke-linejoin=" miter"><path d="M789.18463,1085.6934L468.05408,1016.2356L488.21606,922.65607Q488.17932,922.0989,488.65796,922.06836L809.14374,991.3866L789.1909,1085.6646 M820.39374,988.7042Q820.9777,983.99835,816.2508,982.6926L486.0924,911.28217Q480.86133,910.3622,479.56445,915.3528L457.1084,1019.1961Q456.58606,1022.36383,459.58887,1024.4117L791.73035,1096.4753Q796.1449,1097.254,797.8228,1093.0098L820.38184,988.7593" fill="#004AAC"></path></g><g fill-opacity="1.0" stroke-linejoin=" miter"><path d="M493.38483,1202.647L392.97168,889.81085L484.09503,860.48193Q484.5592,860.1715,484.8249,860.5707L585.03644,1172.7787L493.4129,1202.638 M592.9845,1181.1803Q597.35187,1179.333,596.11926,1174.5865L492.88324,852.9558Q491.06445,847.9656,486.09406,849.3377L384.93506,881.8119Q381.93054,882.94336,381.6584,886.5679L485.32025,1210.2427Q486.8532,1214.4551,491.36774,1213.7861L592.9309,1181.1975" fill="#004AAC"></path></g><g fill-opacity="1.0" stroke-linejoin=" miter"><path d="M290.81525,690.3065L611.94586,759.7643L591.7839,853.3439Q591.8206,853.9011,591.342,853.93164L270.8562,784.61334L290.80902,690.3353 M259.6062,787.2957Q259.02222,792.0016,263.74915,793.3074L593.90753,864.7178Q599.1386,865.63776,600.4355,860.6472L622.89154,756.80383Q623.4139,753.6361,620.4111,751.58813L288.2696,679.5246Q283.85498,678.746,282.17706,682.9902L259.61804,787.2407" fill="#004AAC"></path></g><g fill-opacity="1.0" stroke-linejoin=" miter"><path d="M244.20013,1004.9535L464.91757,761.5751L535.87885,825.82574Q536.37976,826.0725,536.16693,826.5022L315.89264,1069.392L244.22195,1004.9733 M312.59064,1080.476Q316.37408,1083.3347,319.86835,1079.8939L546.7908,829.6735Q550.203,825.6033,546.52954,821.98486L467.82657,750.6156Q465.34445,748.57947,462.06946,750.156L233.58984,1001.7672Q230.70822,1005.20105,233.54486,1008.77625L312.54895,1080.4382" fill="#004AAC"></path></g></g></g><g id="SvgjsG1008" featureKey="textGroupContainer" transform="matrix(1,0,0,1,233,41)" fill="#1a4b40"><rect xmlns="http://www.w3.org/2000/svg" y="0" x="0" height="1" width="1" opacity="0"></rect><rect xmlns="http://www.w3.org/2000/svg" y="70.5" x="0" width="0" height="2"></rect><rect xmlns="http://www.w3.org/2000/svg" y="70.5" x="286.65" width="0" height="2"></rect></g><g id="SvgjsG1009" featureKey="YhTCwJ-0" transform="matrix(3.9720726938067252,0,0,3.9720726938067252,93.66345833111215,-22.02405872859511)" fill="#004aac"><path d="M6.22 9.14 l-2.28 0 l0 3.66 l2.18 0 c1.34 0 2.16 -0.76 2.16 -1.82 s-0.68 -1.84 -2.06 -1.84 z M3.94 15.34 l0 4.66 l-3.1 0 l0 -13.7 l5.84 0 c2.92 0 4.72 1.88 4.72 4.56 c0 2.14 -1.42 3.92 -3.74 4.38 l4.36 4.76 l-4.04 0 z M22.94 17.8 c-1 1.5 -2.58 2.44 -4.86 2.44 c-3.28 0 -5.4 -2.3 -5.4 -5.34 c0 -2.96 2.2 -5.36 5.42 -5.36 c3.24 0 5.2 2.24 5.2 5.22 c0 0.4 -0.04 0.92 -0.04 0.98 l-7.84 0 c0.3 1.3 1.28 2.14 2.72 2.14 c1.24 0 2.14 -0.54 2.72 -1.36 z M18.08 11.82 c-1.3 0 -2.2 0.7 -2.56 1.86 l4.98 0 c-0.3 -1.24 -1.3 -1.86 -2.42 -1.86 z M33.7 15.14 l-6.06 0 l0 4.86 l-3.1 0 l0 -13.7 l9.68 0 l0 2.84 l-6.58 0 l0 3.28 l6.06 0 l0 2.72 z M40.62 9.54 c3.16 0 5.52 2.36 5.52 5.36 c0 2.98 -2.36 5.34 -5.52 5.34 s-5.5 -2.34 -5.5 -5.34 c0 -2.98 2.36 -5.36 5.5 -5.36 z M40.62 12.06 c-1.56 0 -2.76 1.2 -2.76 2.84 s1.14 2.86 2.7 2.86 s2.82 -1.22 2.82 -2.86 s-1.2 -2.84 -2.76 -2.84 z M49.84 20 l-2.8 0 l0 -10.26 l2.78 0 l0 1.4 c0.68 -0.94 1.7 -1.54 2.98 -1.54 l0 2.8 c-2.04 0 -2.96 1.14 -2.96 2.92 l0 4.68 z M56.54 9.74 l0 1.02 c0.52 -0.54 1.46 -1.2 2.84 -1.2 c1.16 0 2.2 0.42 2.94 1.4 c0.8 -0.84 1.88 -1.4 3.36 -1.4 c2.5 0 4 1.64 4 4.08 l0 6.36 l-2.76 0 l0 -5.9 c0 -1.18 -0.64 -1.98 -1.72 -1.98 c-1.24 0 -2.08 0.84 -2.08 2.22 l0 5.66 l-2.74 0 l0 -5.9 c0 -1.18 -0.64 -1.98 -1.72 -1.98 c-1.24 0 -2.08 0.84 -2.08 2.22 l0 5.66 l-2.78 0 l0 -10.26 l2.74 0 z"></path></g><g id="SvgjsG1010" featureKey="duLK5n-0" transform="matrix(0.7527488143576083,0,0,0.7527488143576083,96.36769124001786,63.46845286980195)" fill="#004aac"><path d="M9.74 20 l0 -5.36 l-5.8 0 l0 5.36 l-3.1 0 l0 -13.7 l3.1 0 l0 5.5 l5.8 0 l0 -5.5 l3.1 0 l0 13.7 l-3.1 0 z M28.248 20 l0 -13.7 l10.02 0 l0 2.8 l-6.92 0 l0 2.58 l6.4 0 l0 2.72 l-6.4 0 l0 2.8 l6.94 0 l0 2.8 l-10.04 0 z M61.096 14.9 l-1.78 -5.36 l-1.78 5.36 l3.56 0 z M62.796 20 l-0.78 -2.36 l-5.38 0 l-0.78 2.36 l-3.18 0 l4.84 -13.7 l3.8 0 l4.82 13.7 l-3.34 0 z M80.824 20 l0 -13.7 l3.1 0 l0 10.86 l6.36 0 l0 2.84 l-9.46 0 z M112.072 20 l-3.1 0 l0 -10.86 l-4.08 0 l0 -2.84 l11.26 0 l0 2.84 l-4.08 0 l0 10.86 z M139.92 20 l0 -5.36 l-5.8 0 l0 5.36 l-3.1 0 l0 -13.7 l3.1 0 l0 5.5 l5.8 0 l0 -5.5 l3.1 0 l0 13.7 l-3.1 0 z M183.796 14.9 l-1.78 -5.36 l-1.78 5.36 l3.56 0 z M185.496 20 l-0.78 -2.36 l-5.38 0 l-0.78 2.36 l-3.18 0 l4.84 -13.7 l3.8 0 l4.82 13.7 l-3.34 0 z M203.524 20 l0 -13.7 l3.1 0 l0 10.86 l6.36 0 l0 2.84 l-9.46 0 z M228.132 20 l0 -13.7 l3.1 0 l0 10.86 l6.36 0 l0 2.84 l-9.46 0 z M255.84 20 l-3.1 0 l0 -13.7 l3.1 0 l0 13.7 z M278.928 14.9 l-1.78 -5.36 l-1.78 5.36 l3.56 0 z M280.628 20 l-0.78 -2.36 l-5.38 0 l-0.78 2.36 l-3.18 0 l4.84 -13.7 l3.8 0 l4.82 13.7 l-3.34 0 z M307.156 20 l-5.52 -8.68 l0 8.68 l-2.98 0 l0 -13.7 l3.38 0 l5.52 8.7 l0 -8.7 l2.98 0 l0 13.7 l-3.38 0 z M332.864 8.9 c-2.32 0 -4.08 1.86 -4.08 4.22 c0 2.42 1.76 4.26 4.18 4.26 c1.68 0 2.96 -0.88 3.74 -2.22 l2.42 1.68 c-1.32 2.16 -3.34 3.44 -6.12 3.44 c-4.22 0 -7.38 -3.14 -7.38 -7.16 c0 -3.98 3.14 -7.1 7.3 -7.1 c2.7 0 4.84 1.12 6.14 3.42 l-2.46 1.7 c-0.8 -1.32 -2 -2.24 -3.74 -2.24 z M354.052 20 l0 -13.7 l10.02 0 l0 2.8 l-6.92 0 l0 2.58 l6.4 0 l0 2.72 l-6.4 0 l0 2.8 l6.94 0 l0 2.8 l-10.04 0 z"></path></g>
			</g>
		</svg>
	